<svg viewBox="0 0 100 100" fill="none" xmlns="http://www.w3.org/2000/svg">
  <defs>
    <linearGradient id="faviconGradient" x1="0%" y1="0%" x2="100%" y2="100%">
      <stop offset="0%" stop-color="#10B981" />
      <stop offset="100%" stop-color="#06B6D4" />
    </linearGradient>
  </defs>
  
  <!-- Background circle with gradient -->
  <circle cx="50" cy="50" r="48" fill="url(#faviconGradient)" />
  
  <!-- Abstract F shape - optimized for small sizes -->
  <path
    d="M32 72V28C32 25 34 23 37 23H63C66 23 68 25 68 28C68 31 66 33 63 33H42V45H58C61 45 63 47 63 50C63 53 61 55 58 55H42V72C42 75 40 77 37 77C34 77 32 75 32 72Z"
    fill="#0A0A0A"
  />
  
  <!-- Growth arrow - thicker for visibility -->
  <path
    d="M52 68L68 52M68 52V62M68 52H58"
    stroke="#10B981"
    stroke-width="4"
    stroke-linecap="round"
    stroke-linejoin="round"
    fill="none"
  />
</svg>

